<svg width="428" height="1" viewBox="0 0 428 1" fill="none" xmlns="http://www.w3.org/2000/svg">
<rect y="1" width="0.557576" height="24" transform="rotate(-90 0 1)" fill="#1FC7FF" fill-opacity="0.24"/>
<rect x="58" y="1" width="0.557576" height="24" transform="rotate(-90 58 1)" fill="#1FC7FF" fill-opacity="0.24"/>
<rect width="0.557576" height="24" transform="matrix(0 -1 -1 0 428 1)" fill="#1FC7FF" fill-opacity="0.24"/>
<rect x="32" y="1" width="0.557576" height="24" transform="rotate(-90 32 1)" fill="#1FC7FF" fill-opacity="0.24"/>
<rect x="26" y="1" width="0.557576" height="4" transform="rotate(-90 26 1)" fill="#1FC7FF" fill-opacity="0.72"/>
<rect x="84" y="1" width="0.557576" height="4" transform="rotate(-90 84 1)" fill="#1FC7FF" fill-opacity="0.72"/>
<rect x="90" y="1" width="0.557576" height="4" transform="rotate(-90 90 1)" fill="#1FC7FF" fill-opacity="0.72"/>
<rect x="96" y="1" width="0.557576" height="4" transform="rotate(-90 96 1)" fill="#1FC7FF" fill-opacity="0.72"/>
<rect width="0.557576" height="24" transform="matrix(0 -1 -1 0 370 1)" fill="#1FC7FF" fill-opacity="0.24"/>
<rect x="102" y="1" width="0.557576" height="224" transform="rotate(-90 102 1)" fill="#1FC7FF" fill-opacity="0.24"/>
<rect width="0.557576" height="24" transform="matrix(0 -1 -1 0 396 1)" fill="#1FC7FF" fill-opacity="0.24"/>
<rect width="0.557576" height="4" transform="matrix(0 -1 -1 0 402 1)" fill="#1FC7FF" fill-opacity="0.72"/>
<rect width="0.557576" height="4" transform="matrix(0 -1 -1 0 344 1)" fill="#1FC7FF" fill-opacity="0.72"/>
<rect width="0.557576" height="4" transform="matrix(0 -1 -1 0 338 1)" fill="#1FC7FF" fill-opacity="0.72"/>
<rect width="0.557576" height="4" transform="matrix(0 -1 -1 0 332 1)" fill="#1FC7FF" fill-opacity="0.72"/>
</svg>
