<svg xmlns="http://www.w3.org/2000/svg" width="26" height="26" viewBox="0 0 26 26" fill="none">
    <g filter="url(#filter0_d_1520_2493)">
        <mask id="mask0_1520_2493" style="mask-type:alpha" maskUnits="userSpaceOnUse" x="1" y="1" width="24"
            height="24">
            <rect x="1" y="1" width="24" height="24" fill="#C4C4C4" />
        </mask>
        <g mask="url(#mask0_1520_2493)">
            <g filter="url(#filter1_i_1520_2493)">
                <path
                    d="M9.23574 12.2105H17.1578C17.272 12.2083 17.3808 12.1627 17.4608 12.0835C17.5408 12.0042 17.5856 11.8976 17.5856 11.7867V4.39889C17.5791 4.29228 17.5315 4.19197 17.4522 4.11801C17.3728 4.04406 17.2677 4.00191 17.1578 4H9.23574C9.12293 3.99992 9.01447 4.04228 8.93312 4.1182C8.85177 4.19412 8.80385 4.2977 8.79943 4.4072V11.795C8.80167 11.9059 8.84863 12.0116 8.93021 12.0893C9.01179 12.167 9.12149 12.2105 9.23574 12.2105ZM10.8013 6.75068C10.8035 6.63894 10.8502 6.53237 10.9315 6.45335C11.0129 6.37432 11.1226 6.32899 11.2376 6.32686H15.1559C15.2716 6.32686 15.3826 6.37151 15.4644 6.45099C15.5462 6.53047 15.5922 6.63827 15.5922 6.75068V7.4986H11.2376C11.1789 7.49864 11.1207 7.48715 11.0666 7.46482C11.0125 7.44249 10.9637 7.40978 10.9229 7.36865C10.8822 7.32751 10.8504 7.27881 10.8295 7.22546C10.8086 7.1721 10.799 7.1152 10.8013 7.05816V6.75068ZM11.9648 13.3988H4.43631C4.32059 13.3988 4.20962 13.4435 4.12779 13.523C4.04597 13.6025 4 13.7103 4 13.8227V21.5927C4.00446 21.7037 4.05356 21.8085 4.13676 21.8846C4.21995 21.9608 4.33058 22.0022 4.44487 21.9999H11.9819C12.0977 21.9999 12.2086 21.9553 12.2905 21.8758C12.3723 21.7963 12.4183 21.6885 12.4183 21.5761V13.8144C12.4183 13.702 12.3723 13.5942 12.2905 13.5147C12.2086 13.4352 12.0977 13.3905 11.9819 13.3905L11.9648 13.3988ZM10.4078 16.4902C10.4078 16.5459 10.3965 16.601 10.3746 16.6524C10.3527 16.7039 10.3205 16.7506 10.28 16.7899C10.2395 16.8293 10.1914 16.8605 10.1385 16.8818C10.0855 16.9031 10.0288 16.9141 9.97148 16.9141H6.44677C6.33105 16.9141 6.22007 16.8694 6.13825 16.7899C6.05642 16.7104 6.01046 16.6026 6.01046 16.4902V16.1994C6.01043 16.0862 6.05613 15.9775 6.13772 15.8967C6.2193 15.8159 6.33027 15.7694 6.44677 15.7673H9.97148C10.0865 15.7694 10.1962 15.8147 10.2776 15.8937C10.3589 15.9728 10.4056 16.0793 10.4078 16.1911V16.4902ZM21.5295 13.3905H14.0181C13.9023 13.3905 13.7914 13.4352 13.7095 13.5147C13.6277 13.5942 13.5817 13.702 13.5817 13.8144V21.5844C13.5862 21.6954 13.6353 21.8002 13.7185 21.8763C13.8017 21.9525 13.9123 21.9939 14.0266 21.9916H21.5637C21.6794 21.9916 21.7904 21.9469 21.8722 21.8675C21.954 21.788 22 21.6802 22 21.5678V13.8144C22 13.702 21.954 13.5942 21.8722 13.5147C21.7904 13.4352 21.6794 13.3905 21.5637 13.3905H21.5295ZM19.9639 16.4902C19.9639 16.6026 19.9179 16.7104 19.8361 16.7899C19.7543 16.8694 19.6433 16.9141 19.5276 16.9141H16.0114C15.8957 16.9141 15.7847 16.8694 15.7029 16.7899C15.6211 16.7104 15.5751 16.6026 15.5751 16.4902V16.1994C15.5773 16.0876 15.624 15.9811 15.7053 15.9021C15.7867 15.823 15.8964 15.7777 16.0114 15.7756H19.5361C19.6512 15.7777 19.7609 15.823 19.8422 15.9021C19.9236 15.9811 19.9702 16.0876 19.9724 16.1994L19.9639 16.4902Z"
                    fill="#ADEAFF" />
            </g>
        </g>
    </g>
    <defs>
        <filter id="filter0_d_1520_2493" x="0" y="0" width="26" height="26" filterUnits="userSpaceOnUse"
            color-interpolation-filters="sRGB">
            <feFlood flood-opacity="0" result="BackgroundImageFix" />
            <feColorMatrix in="SourceAlpha" type="matrix" values="0 0 0 0 0 0 0 0 0 0 0 0 0 0 0 0 0 0 127 0"
                result="hardAlpha" />
            <feOffset />
            <feGaussianBlur stdDeviation="2" />
            <feComposite in2="hardAlpha" operator="out" />
            <feColorMatrix type="matrix" values="0 0 0 0 0 0 0 0 0 0.509804 0 0 0 0 1 0 0 0 0.32 0" />
            <feBlend mode="normal" in2="BackgroundImageFix" result="effect1_dropShadow_1520_2493" />
            <feBlend mode="normal" in="SourceGraphic" in2="effect1_dropShadow_1520_2493" result="shape" />
        </filter>
        <filter id="filter1_i_1520_2493" x="4" y="4" width="18" height="20" filterUnits="userSpaceOnUse"
            color-interpolation-filters="sRGB">
            <feFlood flood-opacity="0" result="BackgroundImageFix" />
            <feBlend mode="normal" in="SourceGraphic" in2="BackgroundImageFix" result="shape" />
            <feColorMatrix in="SourceAlpha" type="matrix" values="0 0 0 0 0 0 0 0 0 0 0 0 0 0 0 0 0 0 127 0"
                result="hardAlpha" />
            <feOffset dy="2" />
            <feGaussianBlur stdDeviation="2" />
            <feComposite in2="hardAlpha" operator="arithmetic" k2="-1" k3="1" />
            <feColorMatrix type="matrix" values="0 0 0 0 1 0 0 0 0 1 0 0 0 0 1 0 0 0 0.5 0" />
            <feBlend mode="normal" in2="shape" result="effect1_innerShadow_1520_2493" />
        </filter>
    </defs>
</svg>