<svg width="430" height="184" viewBox="0 0 430 184" fill="none" xmlns="http://www.w3.org/2000/svg">
<rect width="1" height="13.3818" fill="#1FC7FF" fill-opacity="0.24"/>
<rect y="32.3398" width="1" height="13.3818" fill="#1FC7FF" fill-opacity="0.24"/>
<rect y="56.8726" width="1" height="127.127" fill="#1FC7FF" fill-opacity="0.24"/>
<rect y="17.8425" width="1" height="13.3818" fill="#1FC7FF" fill-opacity="0.24"/>
<rect y="14.4971" width="1" height="2.2303" fill="#1FC7FF" fill-opacity="0.5"/>
<rect y="46.8367" width="1" height="2.2303" fill="#1FC7FF" fill-opacity="0.5"/>
<rect y="50.1814" width="1" height="2.2303" fill="#1FC7FF" fill-opacity="0.5"/>
<rect y="53.5276" width="1" height="2.2303" fill="#1FC7FF" fill-opacity="0.5"/>
<rect width="1" height="13.3818" transform="matrix(1 0 0 -1 429 184)" fill="#1FC7FF" fill-opacity="0.24"/>
<rect width="1" height="13.3818" transform="matrix(1 0 0 -1 429 151.66)" fill="#1FC7FF" fill-opacity="0.24"/>
<rect width="1" height="127.127" transform="matrix(1 0 0 -1 429 127.127)" fill="#1FC7FF" fill-opacity="0.24"/>
<rect width="1" height="13.3818" transform="matrix(1 0 0 -1 429 166.157)" fill="#1FC7FF" fill-opacity="0.24"/>
<rect width="1" height="2.2303" transform="matrix(1 0 0 -1 429 169.503)" fill="#1FC7FF" fill-opacity="0.5"/>
<rect width="1" height="2.2303" transform="matrix(1 0 0 -1 429 137.163)" fill="#1FC7FF" fill-opacity="0.5"/>
<rect width="1" height="2.2303" transform="matrix(1 0 0 -1 429 133.819)" fill="#1FC7FF" fill-opacity="0.5"/>
<rect width="1" height="2.2303" transform="matrix(1 0 0 -1 429 130.472)" fill="#1FC7FF" fill-opacity="0.5"/>
<rect x="1" y="184" width="0.557576" height="24" transform="rotate(-90 1 184)" fill="#1FC7FF" fill-opacity="0.24"/>
<rect x="59" y="184" width="0.557576" height="24" transform="rotate(-90 59 184)" fill="#1FC7FF" fill-opacity="0.24"/>
<rect width="0.557576" height="24" transform="matrix(0 -1 -1 0 429 184)" fill="#1FC7FF" fill-opacity="0.24"/>
<rect x="33" y="184" width="0.557576" height="24" transform="rotate(-90 33 184)" fill="#1FC7FF" fill-opacity="0.24"/>
<rect x="27" y="184" width="0.557576" height="4" transform="rotate(-90 27 184)" fill="#1FC7FF" fill-opacity="0.72"/>
<rect x="85" y="184" width="0.557576" height="4" transform="rotate(-90 85 184)" fill="#1FC7FF" fill-opacity="0.72"/>
<rect x="91" y="184" width="0.557576" height="4" transform="rotate(-90 91 184)" fill="#1FC7FF" fill-opacity="0.72"/>
<rect x="97" y="184" width="0.557576" height="4" transform="rotate(-90 97 184)" fill="#1FC7FF" fill-opacity="0.72"/>
<rect width="0.557576" height="24" transform="matrix(0 -1 -1 0 371 184)" fill="#1FC7FF" fill-opacity="0.24"/>
<rect x="103" y="184" width="0.557576" height="224" transform="rotate(-90 103 184)" fill="#1FC7FF" fill-opacity="0.24"/>
<rect width="0.557576" height="24" transform="matrix(0 -1 -1 0 397 184)" fill="#1FC7FF" fill-opacity="0.24"/>
<rect width="0.557576" height="4" transform="matrix(0 -1 -1 0 403 184)" fill="#1FC7FF" fill-opacity="0.72"/>
<rect width="0.557576" height="4" transform="matrix(0 -1 -1 0 345 184)" fill="#1FC7FF" fill-opacity="0.72"/>
<rect width="0.557576" height="4" transform="matrix(0 -1 -1 0 339 184)" fill="#1FC7FF" fill-opacity="0.72"/>
<rect width="0.557576" height="4" transform="matrix(0 -1 -1 0 333 184)" fill="#1FC7FF" fill-opacity="0.72"/>
</svg>
