<svg width="354" height="32" viewBox="0 0 354 32" fill="none" xmlns="http://www.w3.org/2000/svg">
<path d="M167.949 0H157.931L152.921 31.9996H162.94L167.949 0Z" fill="url(#paint0_linear_1508_4530)" fill-opacity="0.16"/>
<path d="M129.718 0H119.699L114.69 31.9996H124.709L129.718 0Z" fill="url(#paint1_linear_1508_4530)" fill-opacity="0.16"/>
<path d="M91.4867 0H81.4684L76.4592 31.9996H86.4775L91.4867 0Z" fill="url(#paint2_linear_1508_4530)" fill-opacity="0.16"/>
<path d="M53.2574 0H43.2391L38.2299 31.9996H48.2482L53.2574 0Z" fill="url(#paint3_linear_1508_4530)" fill-opacity="0.16"/>
<path d="M15.0272 0H5.00885L-0.000310898 31.9996H10.018L15.0272 0Z" fill="url(#paint4_linear_1508_4530)" fill-opacity="0.16"/>
<path d="M186.733 0H176.714L171.705 31.9996H181.724L186.733 0Z" fill="url(#paint5_linear_1508_4530)" fill-opacity="0.16"/>
<path d="M148.502 0H138.484L133.475 31.9996H143.493L148.502 0Z" fill="url(#paint6_linear_1508_4530)" fill-opacity="0.16"/>
<path d="M110.272 0H100.254L95.2447 31.9996H105.263L110.272 0Z" fill="url(#paint7_linear_1508_4530)" fill-opacity="0.16"/>
<path d="M72.0429 0H62.0246L57.0154 31.9996H67.0338L72.0429 0Z" fill="url(#paint8_linear_1508_4530)" fill-opacity="0.16"/>
<path d="M33.8118 0H23.7935L18.7844 31.9996H28.8027L33.8118 0Z" fill="url(#paint9_linear_1508_4530)" fill-opacity="0.16"/>
<path d="M205.518 0H195.5L190.491 31.9996H200.509L205.518 0Z" fill="url(#paint10_linear_1508_4530)" fill-opacity="0.16"/>
<path d="M224.302 0H214.284L209.274 31.9996H219.293L224.302 0Z" fill="url(#paint11_linear_1508_4530)" fill-opacity="0.16"/>
<path d="M243.086 0H233.067L228.058 31.9996H238.077L243.086 0Z" fill="url(#paint12_linear_1508_4530)" fill-opacity="0.16"/>
<path d="M261.87 0H251.852L246.843 31.9996H256.861L261.87 0Z" fill="url(#paint13_linear_1508_4530)" fill-opacity="0.16"/>
<path d="M280.654 0H270.636L265.627 31.9996H275.645L280.654 0Z" fill="url(#paint14_linear_1508_4530)" fill-opacity="0.16"/>
<path d="M299.439 0H289.42L284.411 31.9996H294.43L299.439 0Z" fill="url(#paint15_linear_1508_4530)" fill-opacity="0.16"/>
<path d="M318.223 0H308.205L303.196 31.9996H313.214L318.223 0Z" fill="url(#paint16_linear_1508_4530)" fill-opacity="0.16"/>
<path d="M337.007 0H326.989L321.98 31.9996H331.998L337.007 0Z" fill="url(#paint17_linear_1508_4530)" fill-opacity="0.16"/>
<path d="M354 0.507324H344.166L339.25 32.0001H349.083L354 0.507324Z" fill="url(#paint18_linear_1508_4530)" fill-opacity="0.16"/>
<defs>
<linearGradient id="paint0_linear_1508_4530" x1="163.253" y1="1.33281e-08" x2="161.731" y2="32.1498" gradientUnits="userSpaceOnUse">
<stop stop-color="#FA3758" stop-opacity="0"/>
<stop offset="1" stop-color="#FA3758"/>
</linearGradient>
<linearGradient id="paint1_linear_1508_4530" x1="125.022" y1="1.33281e-08" x2="123.5" y2="32.1498" gradientUnits="userSpaceOnUse">
<stop stop-color="#FA3758" stop-opacity="0"/>
<stop offset="1" stop-color="#FA3758"/>
</linearGradient>
<linearGradient id="paint2_linear_1508_4530" x1="86.7906" y1="1.33281e-08" x2="85.2693" y2="32.1498" gradientUnits="userSpaceOnUse">
<stop stop-color="#FA3758" stop-opacity="0"/>
<stop offset="1" stop-color="#FA3758"/>
</linearGradient>
<linearGradient id="paint3_linear_1508_4530" x1="48.5613" y1="1.33281e-08" x2="47.04" y2="32.1498" gradientUnits="userSpaceOnUse">
<stop stop-color="#FA3758" stop-opacity="0"/>
<stop offset="1" stop-color="#FA3758"/>
</linearGradient>
<linearGradient id="paint4_linear_1508_4530" x1="10.3311" y1="1.33281e-08" x2="8.80974" y2="32.1498" gradientUnits="userSpaceOnUse">
<stop stop-color="#FA3758" stop-opacity="0"/>
<stop offset="1" stop-color="#FA3758"/>
</linearGradient>
<linearGradient id="paint5_linear_1508_4530" x1="182.037" y1="1.33281e-08" x2="180.515" y2="32.1498" gradientUnits="userSpaceOnUse">
<stop stop-color="#FA3758" stop-opacity="0"/>
<stop offset="1" stop-color="#FA3758"/>
</linearGradient>
<linearGradient id="paint6_linear_1508_4530" x1="143.806" y1="1.33281e-08" x2="142.285" y2="32.1498" gradientUnits="userSpaceOnUse">
<stop stop-color="#FA3758" stop-opacity="0"/>
<stop offset="1" stop-color="#FA3758"/>
</linearGradient>
<linearGradient id="paint7_linear_1508_4530" x1="105.576" y1="1.33281e-08" x2="104.055" y2="32.1498" gradientUnits="userSpaceOnUse">
<stop stop-color="#FA3758" stop-opacity="0"/>
<stop offset="1" stop-color="#FA3758"/>
</linearGradient>
<linearGradient id="paint8_linear_1508_4530" x1="67.3468" y1="1.33281e-08" x2="65.8255" y2="32.1498" gradientUnits="userSpaceOnUse">
<stop stop-color="#FA3758" stop-opacity="0"/>
<stop offset="1" stop-color="#FA3758"/>
</linearGradient>
<linearGradient id="paint9_linear_1508_4530" x1="29.1157" y1="1.33281e-08" x2="27.5944" y2="32.1498" gradientUnits="userSpaceOnUse">
<stop stop-color="#FA3758" stop-opacity="0"/>
<stop offset="1" stop-color="#FA3758"/>
</linearGradient>
<linearGradient id="paint10_linear_1508_4530" x1="200.822" y1="1.33281e-08" x2="199.301" y2="32.1498" gradientUnits="userSpaceOnUse">
<stop stop-color="#FA3758" stop-opacity="0"/>
<stop offset="1" stop-color="#FA3758"/>
</linearGradient>
<linearGradient id="paint11_linear_1508_4530" x1="219.606" y1="1.33281e-08" x2="218.084" y2="32.1498" gradientUnits="userSpaceOnUse">
<stop stop-color="#FA3758" stop-opacity="0"/>
<stop offset="1" stop-color="#FA3758"/>
</linearGradient>
<linearGradient id="paint12_linear_1508_4530" x1="238.39" y1="1.33281e-08" x2="236.868" y2="32.1498" gradientUnits="userSpaceOnUse">
<stop stop-color="#FA3758" stop-opacity="0"/>
<stop offset="1" stop-color="#FA3758"/>
</linearGradient>
<linearGradient id="paint13_linear_1508_4530" x1="257.174" y1="1.33281e-08" x2="255.653" y2="32.1498" gradientUnits="userSpaceOnUse">
<stop stop-color="#FA3758" stop-opacity="0"/>
<stop offset="1" stop-color="#FA3758"/>
</linearGradient>
<linearGradient id="paint14_linear_1508_4530" x1="275.958" y1="1.33281e-08" x2="274.437" y2="32.1498" gradientUnits="userSpaceOnUse">
<stop stop-color="#FA3758" stop-opacity="0"/>
<stop offset="1" stop-color="#FA3758"/>
</linearGradient>
<linearGradient id="paint15_linear_1508_4530" x1="294.743" y1="1.33281e-08" x2="293.221" y2="32.1498" gradientUnits="userSpaceOnUse">
<stop stop-color="#FA3758" stop-opacity="0"/>
<stop offset="1" stop-color="#FA3758"/>
</linearGradient>
<linearGradient id="paint16_linear_1508_4530" x1="313.527" y1="1.33281e-08" x2="312.006" y2="32.1498" gradientUnits="userSpaceOnUse">
<stop stop-color="#FA3758" stop-opacity="0"/>
<stop offset="1" stop-color="#FA3758"/>
</linearGradient>
<linearGradient id="paint17_linear_1508_4530" x1="332.311" y1="1.33281e-08" x2="330.79" y2="32.1498" gradientUnits="userSpaceOnUse">
<stop stop-color="#FA3758" stop-opacity="0"/>
<stop offset="1" stop-color="#FA3758"/>
</linearGradient>
<linearGradient id="paint18_linear_1508_4530" x1="349.39" y1="0.507324" x2="347.889" y2="32.1476" gradientUnits="userSpaceOnUse">
<stop stop-color="#FA3758" stop-opacity="0"/>
<stop offset="1" stop-color="#FA3758"/>
</linearGradient>
</defs>
</svg>
