<svg width="1" height="184" viewBox="0 0 1 184" fill="none" xmlns="http://www.w3.org/2000/svg">
<g id="Group 427318854">
<rect id="Rectangle 34624069" width="1" height="13.3818" transform="matrix(1 0 0 -1 0 184)" fill="#1FC7FF" fill-opacity="0.24"/>
<rect id="Rectangle 34624072" width="1" height="13.3818" transform="matrix(1 0 0 -1 0 151.66)" fill="#1FC7FF" fill-opacity="0.24"/>
<rect id="Rectangle 34624076" width="1" height="127.127" transform="matrix(1 0 0 -1 0 127.127)" fill="#1FC7FF" fill-opacity="0.24"/>
<rect id="Rectangle 34624071" width="1" height="13.3818" transform="matrix(1 0 0 -1 0 166.157)" fill="#1FC7FF" fill-opacity="0.24"/>
<rect id="Rectangle 34624070" width="1" height="2.2303" transform="matrix(1 0 0 -1 0 169.503)" fill="#1FC7FF" fill-opacity="0.5"/>
<rect id="Rectangle 34624073" width="1" height="2.2303" transform="matrix(1 0 0 -1 0 137.163)" fill="#1FC7FF" fill-opacity="0.5"/>
<rect id="Rectangle 34624074" width="1" height="2.2303" transform="matrix(1 0 0 -1 0 133.819)" fill="#1FC7FF" fill-opacity="0.5"/>
<rect id="Rectangle 34624075" width="1" height="2.2303" transform="matrix(1 0 0 -1 0 130.472)" fill="#1FC7FF" fill-opacity="0.5"/>
</g>
</svg>
