<svg xmlns="http://www.w3.org/2000/svg" width="20" height="20" viewBox="0 0 20 20" fill="none">
  <path d="M9.45312 8.35938V12.7344C9.45312 13.0371 9.69727 13.2812 10 13.2812C10.3027 13.2812 10.5469 13.0371 10.5469 12.7344V8.35938C10.5469 8.05664 10.3027 7.8125 10 7.8125C9.69727 7.8125 9.45312 8.05664 9.45312 8.35938Z" fill="white"/>
  <path d="M9.45312 14.9219C9.45312 15.0669 9.51074 15.206 9.6133 15.3086C9.71586 15.4111 9.85496 15.4688 10 15.4688C10.145 15.4688 10.2841 15.4111 10.3867 15.3086C10.4893 15.206 10.5469 15.0669 10.5469 14.9219C10.5469 14.7768 10.4893 14.6377 10.3867 14.5352C10.2841 14.4326 10.145 14.375 10 14.375C9.85496 14.375 9.71586 14.4326 9.6133 14.5352C9.51074 14.6377 9.45313 14.7768 9.45312 14.9219Z" fill="white"/>
  <path d="M18.6054 16.1152L10.9258 2.81445C10.7207 2.45898 10.3594 2.2793 9.99998 2.2793C9.6406 2.2793 9.27927 2.45703 9.0742 2.81445L1.39451 16.1152C0.982401 16.8281 1.49803 17.7188 2.32029 17.7188H17.6797C18.5019 17.7188 19.0176 16.8281 18.6054 16.1152ZM2.34178 16.6621L9.99998 3.39844L17.6797 16.625L2.34178 16.6621Z" fill="white"/>
</svg>