<svg width="354" height="32" viewBox="0 0 354 32" fill="none" xmlns="http://www.w3.org/2000/svg">
<path d="M167.949 0H157.931L152.922 31.9996H162.94L167.949 0Z" fill="url(#paint0_linear_1508_4570)" fill-opacity="0.16"/>
<path d="M129.718 0H119.7L114.691 31.9996H124.709L129.718 0Z" fill="url(#paint1_linear_1508_4570)" fill-opacity="0.16"/>
<path d="M91.487 0H81.4687L76.4595 31.9996H86.4778L91.487 0Z" fill="url(#paint2_linear_1508_4570)" fill-opacity="0.16"/>
<path d="M53.2577 0H43.2394L38.2302 31.9996H48.2485L53.2577 0Z" fill="url(#paint3_linear_1508_4570)" fill-opacity="0.16"/>
<path d="M15.0275 0H5.00915L-5.72205e-06 31.9996H10.0183L15.0275 0Z" fill="url(#paint4_linear_1508_4570)" fill-opacity="0.16"/>
<path d="M186.733 0H176.715L171.705 31.9996H181.724L186.733 0Z" fill="url(#paint5_linear_1508_4570)" fill-opacity="0.16"/>
<path d="M148.503 0H138.484L133.475 31.9996H143.494L148.503 0Z" fill="url(#paint6_linear_1508_4570)" fill-opacity="0.16"/>
<path d="M110.273 0H100.254L95.2451 31.9996H105.263L110.273 0Z" fill="url(#paint7_linear_1508_4570)" fill-opacity="0.16"/>
<path d="M72.0432 0H62.0249L57.0157 31.9996H67.0341L72.0432 0Z" fill="url(#paint8_linear_1508_4570)" fill-opacity="0.16"/>
<path d="M33.8121 0H23.7938L18.7847 31.9996H28.803L33.8121 0Z" fill="url(#paint9_linear_1508_4570)" fill-opacity="0.16"/>
<path d="M205.518 0H195.5L190.491 31.9996H200.509L205.518 0Z" fill="url(#paint10_linear_1508_4570)" fill-opacity="0.16"/>
<path d="M224.302 0H214.284L209.275 31.9996H219.293L224.302 0Z" fill="url(#paint11_linear_1508_4570)" fill-opacity="0.16"/>
<path d="M243.086 0H233.068L228.058 31.9996H238.077L243.086 0Z" fill="url(#paint12_linear_1508_4570)" fill-opacity="0.16"/>
<path d="M261.871 0H251.852L246.843 31.9996H256.861L261.871 0Z" fill="url(#paint13_linear_1508_4570)" fill-opacity="0.16"/>
<path d="M280.654 0H270.636L265.627 31.9996H275.645L280.654 0Z" fill="url(#paint14_linear_1508_4570)" fill-opacity="0.16"/>
<path d="M299.439 0H289.421L284.411 31.9996H294.43L299.439 0Z" fill="url(#paint15_linear_1508_4570)" fill-opacity="0.16"/>
<path d="M318.224 0H308.205L303.196 31.9996H313.214L318.224 0Z" fill="url(#paint16_linear_1508_4570)" fill-opacity="0.16"/>
<path d="M337.007 0H326.989L321.98 31.9996H331.998L337.007 0Z" fill="url(#paint17_linear_1508_4570)" fill-opacity="0.16"/>
<path d="M354 0.507324H344.167L339.25 32.0001H349.083L354 0.507324Z" fill="url(#paint18_linear_1508_4570)" fill-opacity="0.16"/>
<defs>
<linearGradient id="paint0_linear_1508_4570" x1="163.253" y1="1.33281e-08" x2="161.732" y2="32.1498" gradientUnits="userSpaceOnUse">
<stop stop-color="#FF8447" stop-opacity="0"/>
<stop offset="1" stop-color="#FF8447"/>
</linearGradient>
<linearGradient id="paint1_linear_1508_4570" x1="125.022" y1="1.33281e-08" x2="123.501" y2="32.1498" gradientUnits="userSpaceOnUse">
<stop stop-color="#FF8447" stop-opacity="0"/>
<stop offset="1" stop-color="#FF8447"/>
</linearGradient>
<linearGradient id="paint2_linear_1508_4570" x1="86.7909" y1="1.33281e-08" x2="85.2696" y2="32.1498" gradientUnits="userSpaceOnUse">
<stop stop-color="#FF8447" stop-opacity="0"/>
<stop offset="1" stop-color="#FF8447"/>
</linearGradient>
<linearGradient id="paint3_linear_1508_4570" x1="48.5616" y1="1.33281e-08" x2="47.0403" y2="32.1498" gradientUnits="userSpaceOnUse">
<stop stop-color="#FF8447" stop-opacity="0"/>
<stop offset="1" stop-color="#FF8447"/>
</linearGradient>
<linearGradient id="paint4_linear_1508_4570" x1="10.3314" y1="1.33281e-08" x2="8.81005" y2="32.1498" gradientUnits="userSpaceOnUse">
<stop stop-color="#FF8447" stop-opacity="0"/>
<stop offset="1" stop-color="#FF8447"/>
</linearGradient>
<linearGradient id="paint5_linear_1508_4570" x1="182.037" y1="1.33281e-08" x2="180.515" y2="32.1498" gradientUnits="userSpaceOnUse">
<stop stop-color="#FF8447" stop-opacity="0"/>
<stop offset="1" stop-color="#FF8447"/>
</linearGradient>
<linearGradient id="paint6_linear_1508_4570" x1="143.807" y1="1.33281e-08" x2="142.285" y2="32.1498" gradientUnits="userSpaceOnUse">
<stop stop-color="#FF8447" stop-opacity="0"/>
<stop offset="1" stop-color="#FF8447"/>
</linearGradient>
<linearGradient id="paint7_linear_1508_4570" x1="105.576" y1="1.33281e-08" x2="104.055" y2="32.1498" gradientUnits="userSpaceOnUse">
<stop stop-color="#FF8447" stop-opacity="0"/>
<stop offset="1" stop-color="#FF8447"/>
</linearGradient>
<linearGradient id="paint8_linear_1508_4570" x1="67.3471" y1="1.33281e-08" x2="65.8258" y2="32.1498" gradientUnits="userSpaceOnUse">
<stop stop-color="#FF8447" stop-opacity="0"/>
<stop offset="1" stop-color="#FF8447"/>
</linearGradient>
<linearGradient id="paint9_linear_1508_4570" x1="29.116" y1="1.33281e-08" x2="27.5947" y2="32.1498" gradientUnits="userSpaceOnUse">
<stop stop-color="#FF8447" stop-opacity="0"/>
<stop offset="1" stop-color="#FF8447"/>
</linearGradient>
<linearGradient id="paint10_linear_1508_4570" x1="200.822" y1="1.33281e-08" x2="199.301" y2="32.1498" gradientUnits="userSpaceOnUse">
<stop stop-color="#FF8447" stop-opacity="0"/>
<stop offset="1" stop-color="#FF8447"/>
</linearGradient>
<linearGradient id="paint11_linear_1508_4570" x1="219.606" y1="1.33281e-08" x2="218.085" y2="32.1498" gradientUnits="userSpaceOnUse">
<stop stop-color="#FF8447" stop-opacity="0"/>
<stop offset="1" stop-color="#FF8447"/>
</linearGradient>
<linearGradient id="paint12_linear_1508_4570" x1="238.39" y1="1.33281e-08" x2="236.869" y2="32.1498" gradientUnits="userSpaceOnUse">
<stop stop-color="#FF8447" stop-opacity="0"/>
<stop offset="1" stop-color="#FF8447"/>
</linearGradient>
<linearGradient id="paint13_linear_1508_4570" x1="257.175" y1="1.33281e-08" x2="255.653" y2="32.1498" gradientUnits="userSpaceOnUse">
<stop stop-color="#FF8447" stop-opacity="0"/>
<stop offset="1" stop-color="#FF8447"/>
</linearGradient>
<linearGradient id="paint14_linear_1508_4570" x1="275.958" y1="1.33281e-08" x2="274.437" y2="32.1498" gradientUnits="userSpaceOnUse">
<stop stop-color="#FF8447" stop-opacity="0"/>
<stop offset="1" stop-color="#FF8447"/>
</linearGradient>
<linearGradient id="paint15_linear_1508_4570" x1="294.743" y1="1.33281e-08" x2="293.222" y2="32.1498" gradientUnits="userSpaceOnUse">
<stop stop-color="#FF8447" stop-opacity="0"/>
<stop offset="1" stop-color="#FF8447"/>
</linearGradient>
<linearGradient id="paint16_linear_1508_4570" x1="313.528" y1="1.33281e-08" x2="312.006" y2="32.1498" gradientUnits="userSpaceOnUse">
<stop stop-color="#FF8447" stop-opacity="0"/>
<stop offset="1" stop-color="#FF8447"/>
</linearGradient>
<linearGradient id="paint17_linear_1508_4570" x1="332.311" y1="1.33281e-08" x2="330.79" y2="32.1498" gradientUnits="userSpaceOnUse">
<stop stop-color="#FF8447" stop-opacity="0"/>
<stop offset="1" stop-color="#FF8447"/>
</linearGradient>
<linearGradient id="paint18_linear_1508_4570" x1="349.391" y1="0.507324" x2="347.889" y2="32.1476" gradientUnits="userSpaceOnUse">
<stop stop-color="#FF8447" stop-opacity="0"/>
<stop offset="1" stop-color="#FF8447"/>
</linearGradient>
</defs>
</svg>
